<?xml version="1.0" encoding="utf-8"?>
<!-- Generator: Adobe Illustrator 21.0.2, SVG Export Plug-In . SVG Version: 6.00 Build 0)  -->
<svg version="1.1" id="Layer_1" xmlns="http://www.w3.org/2000/svg" xmlns:xlink="http://www.w3.org/1999/xlink" x="0px" y="0px"
	 viewBox="0 0 720 360" style="enable-background:new 0 0 720 360;" xml:space="preserve">
<style type="text/css">
	.st0{fill:#E50E47;}
</style>
<g transform="translate(0.000000,360.000000) scale(0.100000,-0.100000)">
	<path class="st0" d="M971,2266c-17-20-20-18,64-59c67-34,71-38,110-112c22-42,44-80,50-85c7-6,36-5,73,2c55,10,64,10,82-7
		c11-10,20-26,20-35c0-23-37-60-61-60c-25,0-155-28-186-41c-15-6-23-17-23-33c0-35,27-47,76-35c21,6,62,15,89,20c28,5,77,16,110,24
		c203,48,214,49,235,30c22-20,27-67,8-83c-7-6-35-15-63-20c-263-53-283-59-291-84c-11-35,14-50,71-43l51,7l35-59c26-44,45-64,79-81
		c52-26,26-28,320,33c36,7,97,20,135,29c89,20,145,21,145,2c0-16-39-33-100-41c-25-4-59-11-76-16s-66-16-110-25
		c-184-35-185-35-218-69c-73-73-54-195,29-195c24,0,39,7,54,26c28,36,26,66-6,98c-16,16-23,30-17,35c9,9,100,31,227,55
		c67,12,91,6,68-17c-6-6-11-26-11-45c0-64,75-95,118-49c32,34,28,73-9,108c-32,30-32,31,26,44c79,17,110,98,58,150
		c-25,24-33,27-78,21c-27-3-81-12-120-20c-38-9-113-24-165-35c-52-10-123-25-157-32c-55-11-64-10-87,5c-14,9-26,20-26,25
		s26,14,58,20c31,5,100,20,152,31s127,27,166,34s76,16,81,19s37,10,71,16c72,11,106,32,137,81c19,31,24,59,34,188
		c16,218,15,229-14,257c-29,30-68,32-170,9c-71-16-141-31-275-58c-41-8-118-25-170-36s-131-28-175-36s-98-22-119-30s-42-11-47-7
		c-4,4-23,37-42,73c-29,54-43,69-82,89C1041,2280,988,2287,971,2266z M1544,2054c24-23,20-70-6-88c-12-9-42-16-65-16
		c-34,0-46,5-59,25c-15,23-15,27,0,50c9,14,29,27,44,31c15,3,32,7,37,9C1516,2072,1529,2069,1544,2054z"/>
	<path class="st0" d="M2530,1810v-360h80h80v360v360h-80h-80V1810z"/>
	<path class="st0" d="M5048,1978c-3-82-3-83-30-86s-28-6-28-58c0-53,1-54,29-54h29l4-122c3-100,7-129,23-155c24-41,70-63,128-63
		c43,0,107,16,107,28c0,3-8,30-17,59c-15,48-20,54-39,49c-41-11-54,16-54,115v89h45h45v54v55l-42,3l-43,3l-3,83l-3,82h-74h-74
		L5048,1978z"/>
	<path class="st0" d="M3031,1899c-13-5-36-18-52-30l-29-20v20c0,19-6,21-75,21h-75v-220v-220h75h75v131c0,76,5,139,11,152
		c31,60,99,75,140,31c23-24,24-33,27-170l3-144h75h74v153c0,169-7,207-47,249C3190,1897,3087,1921,3031,1899z"/>
	<path class="st0" d="M4073,1901c-126-32-206-167-173-291c16-59,98-143,155-159s134-14,189,5c45,15,116,71,116,91c0,5-24,20-53,35
		l-53,26l-27-24c-40-34-105-33-146,2c-17,14-31,34-31,45c0,18,9,19,161,19h161l-4,60c-5,76-43,134-109,168
		C4209,1903,4124,1914,4073,1901z M4194,1789c48-38,35-49-59-49h-86l16,29c8,16,20,31,27,34C4122,1815,4169,1809,4194,1789z"/>
	<path class="st0" d="M4670,1895c-19-9-42-23-52-32c-17-15-18-15-18,5c0,21-5,22-75,22h-75v-220v-220h75h75v141v141l29,29
		c38,37,82,39,116,4c24-23,25-28,25-170v-145h81h81l-3,168c-4,146-7,171-25,202C4864,1889,4743,1928,4670,1895z"/>
	<path class="st0" d="M5489,1897c-96-36-149-116-149-224c0-74,15-115,59-166c65-73,188-88,270-34l41,27v-25c0-24,2-25,75-25h75v220
		v220h-80c-64,0-80-3-80-15s-8-11-41,7C5608,1908,5537,1915,5489,1897z M5676,1749c68-64,21-179-74-179c-109,0-143,143-47,199
		C5584,1786,5648,1775,5676,1749z"/>
	<path class="st0" d="M3365,1788c31-57,83-156,118-220l62-118h52h51l114,212c62,117,115,216,116,220c2,4-37,8-86,8h-89l-49-111
		c-26-61-51-112-55-114c-3-3-29,46-57,108l-51,112l-90,3l-91,3L3365,1788z"/>
	<path class="st0" d="M1115,1679c-22-5-50-11-61-14c-51-12-34-75,19-75c56,0,127,31,127,55c0,15-27,46-38,44
		C1158,1688,1137,1684,1115,1679z"/>
</g>
</svg>
